<svg width="17" height="16" viewBox="0 0 17 16" fill="none" xmlns="http://www.w3.org/2000/svg">
<path fill-rule="evenodd" clip-rule="evenodd" d="M16.6399 9.80982C16.6399 6.49387 14.8803 4.95057 12.5332 4.95057C10.6395 4.95057 9.79171 5.9984 9.31832 6.73347V5.20436H5.75118C5.79819 6.21736 5.75118 16 5.75118 16H9.31832V9.97082C9.31832 9.64818 9.34147 9.32632 9.43578 9.09531C9.69356 8.45074 10.2805 7.78338 11.2659 7.78338C12.557 7.78338 13.0732 8.77331 13.0732 10.224V15.9997H16.6397L16.6399 9.80982Z" fill="#74788A"/>
<path fill-rule="evenodd" clip-rule="evenodd" d="M3.7764 5.20431H0.209685V16H3.7764V5.20431Z" fill="#74788A"/>
<path fill-rule="evenodd" clip-rule="evenodd" d="M4.01253 1.86473C3.98939 0.806221 3.23799 0 2.01784 0C0.797692 0 0 0.806221 0 1.86473C0 2.90131 0.774115 3.73074 1.97154 3.73074H1.99434C3.23799 3.73074 4.01253 2.90131 4.01253 1.86473Z" fill="#74788A"/>
</svg>
